<svg xmlns="http://www.w3.org/2000/svg" viewBox="310 5 480 480">
<defs>
<linearGradient id="metal" x1="0" y1="0" x2="1" y2="1"><stop offset="0" stop-color="#d8cdbf"/><stop offset="1" stop-color="#a89b8c"/></linearGradient>
<linearGradient id="metalV" x1="0" y1="0" x2="1" y2="0"><stop offset="0" stop-color="#cbbfb1"/><stop offset="1" stop-color="#e2d8cb"/></linearGradient>
<linearGradient id="gold" x1="0" y1="1" x2="1" y2="0"><stop offset="0" stop-color="#a98a66"/><stop offset="1" stop-color="#e3c9a3"/></linearGradient>
<linearGradient id="green" x1="0" y1="0" x2="1" y2="1"><stop offset="0" stop-color="#34433b"/><stop offset="1" stop-color="#2F3A34"/></linearGradient>
</defs>

<rect x="310" y="5" width="480" height="480" rx="96" fill="#F7F5EF"/>
<g id="mark">
<polygon points="362,265 420,225 420,430 362,430" fill="url(#metalV)"/>
<polygon points="435,155 512,85 512,430 435,430" fill="url(#green)"/>
<rect x="520" y="125" width="12" height="305" fill="url(#metal)"/>
<rect x="538" y="140" width="12" height="290" fill="url(#metal)"/>
<path d="M527.5,120.5 A114,114 0 1 1 622,281.6" fill="none" stroke="#B89B7A" stroke-width="9" stroke-linecap="round"/>
<polygon points="560,240 722,140 562,312" fill="url(#gold)"/>
<polygon points="558,322 590,288 732,430 652,430" fill="url(#metal)"/>
</g>
</svg>
